<svg xmlns="http://www.w3.org/2000/svg" xml:space="preserve" width="2048" height="2048" style="shape-rendering:geometricPrecision;text-rendering:geometricPrecision;image-rendering:optimizeQuality;fill-rule:evenodd;clip-rule:evenodd"><defs><style>.fil15{fill:none}.fil0{fill:#202020}.fil9{fill:#2f2f2f}.fil8{fill:#3b3b3b}.fil7{fill:#414141}.fil14{fill:#4a4a4a}.fil5{fill:#545454}.fil6{fill:#5f5f5f}.fil13{fill:#989898}.fil1{fill:#a2a2a2}.fil12,.fil2,.fil3{fill:#2d2d2d;fill-rule:nonzero}.fil12,.fil3{fill:#909090}.fil12{fill:#9c9c9d}.fil10,.fil11,.fil4{fill:#afafaf;fill-rule:nonzero}.fil10,.fil4{fill:#bebebe}.fil10{fill:#c9c9c9}</style></defs><g id="Layer_x0020_1"><g id="_461661296"><path id="_461659376" class="fil0" d="M1538.55 1604.69h58.889c3.647 17.376 35.237 30.958 73.672 30.958 37.484 0 68.454-12.917 73.349-29.673 5.461 2.39 9.301 7.847 9.301 14.163v76.754c0 8.495-6.952 15.447-15.447 15.447h-281.21c-8.496 0-15.448-6.952-15.448-15.447v-19.19c0-36.783 67.291-73.012 96.894-73.012z"/><path id="_461661848" class="fil0" d="M1438.71 1704.29h320.803v8.996H1438.71z"/><path id="_461648888" class="fil1" d="m984.329 478.264 2.599.975 61.602 23.102-68.943 68.944-27.724-37.573z"/><path id="_461653256" class="fil2" d="m860.892 1500.34 15.75 37.997c2.804 2.535-.203-8.571 4.94-8.036 14.28 1.484 28.703 2.986 38.952 8.95 1.974 1.148 7.425 3.074 13.876 5.349 30.251 10.673 75.731 26.724 98.99 79.393 21.029 47.615 81.518 74.576 106.378 85.656 15.415 6.872 24.988 11.128 28.934 25.931l9.988 37.472H288.491l2.689-32.336c8.332-100.231 26.006-104.07 57.985-111.013 10.802-2.345 26.043-5.654 53.284-59.476 3.427-6.773 6.582-13.03 9.497-18.817 23.734-47.11 32.974-65.448 49.106-80.473 10.615-9.89 21.177-15.562 38.465-24.845 19.24-10.33 48.273-25.92 97.21-58.921h.117c4.947-3.33 18.454-7.052 31.532-9.654 12.541-2.495 26.835-4.768 31.696-4.768 8.967 0 18.444 2.143 27.1 5.45 8.982 3.43 17.694 8.433 24.154 13.649 3.06 2.472 6.098 5.104 9.072 7.684 4.81 4.17 9.411 8.159 13.816 10.916 4.334 2.713 12.44 8.725 23.194 16.698 25.296 18.758 45.021 71.268 57.259 61.405l46.225 11.79z"/><path id="_461653712" class="fil3" d="m1229.53 1015.95-410.079 326.76-28.115-19.86 410.074-326.761z"/><path id="_461662664" class="fil4" d="m780.334 1254.52 90.613 118.805 18.091 23.717-23.694 18.072L811.736 1456a108.284 108.284 0 0 1-3.255 2.404c-.53.372-1.646 1.109-3.314 2.19l-30.089 19.478c-49.656-97.825-16.578-19.526-115.002-96.54l-28.212 1.042c15.598-35.885 20.067-69.593 53.072-94.77l53.608-40.888 23.719-18.09 18.07 23.693z"/><path id="_461665448" class="fil5" d="m1610.46 873.955.063.066c3.52 3.795 6.968 7.344 10.319 10.797 25.669 26.435 46.839 48.237 62.024 115.285 41.193 181.858-34.976 264.252-34.976 354.585 0 14.192 81.232 168.036 91.039 207.66 4.354 17.617 6.953 31.21 7.821 42.34-6.685 35.334-128.741 48.831-148.78 1.957-.687-1.574-6.296-5.172-6.913-6.892l-.541-1.624-119.685-167.865-1.051-5.02-25.048-224.554-101.903 76.627c-3.844 4.17-10.466 12.385-13.154 25.327-3.573 17.207-.874 42.911 20.152 80.422 24.785 44.217 46.992 90.357 67.942 133.886 16.159 33.576 31.553 65.563 46.876 93.862l.466.934c3.15 6.404 6.653 12.371 10.158 18.343 12.888 21.954 25.817 43.98 25.817 75.267l-2.61 67.694c-41.574-5.523-44.217-41.744-87.855-39.257-30.715 1.75-40.969 28.095-57.625-4.97l-3.936-15.54c-52.574-95.414-168.59-157.494-255.218-317.698-15.86-27.166-22.842-63.035-20.868-97.438 1.991-34.721 13.086-69.056 33.375-93.033 24.413-28.86 51.773-59.92 80.784-91.568 20.113-21.938 40.333-43.396 60.14-63.734l-1.309-1.3-.346-.343 364.842-174.216z"/><path id="_461656160" class="fil6" d="M1521.41 454.601c73.04 0 132.969.001 155.78 117.52l.585 5.603c0 108.658-10.948 174.755-28.099 218.467-12.986 33.1-29.115 53.62-46.731 69.36a288.73 288.73 0 0 0 7.515 8.404l-281.916 134.617-82.925 39.599a17620.98 17620.98 0 0 0-67.494-66.526c-20.606-20.212-68.037-68.725-91.555-91.668l-36.342 195.761c-7.44 26.476-23.808 75.074-55.156 98.762-25.635 19.371-61.288 22.089-110.267-17.564-14.484-18.501-23.132-42.042-23.132-66.1 0-5.181.464-10.678 1.425-16.464l58.662-352.948-.02-.003c2.216-18.603 6.426-49.27 11.93-77.181 3.971-20.152 8.71-39.213 14.08-52.393 12.638-31.013 33.78-59.527 60.824-83.479 26.716-23.663 59.134-42.866 94.64-55.538 59.172-21.118 222.01-14.895 333.51-10.633 34.014 1.299 62.91 2.403 84.411 2.403h.274zm6.528 178.474-23.586 105.011c-.818 4.374-3.291 8.571-7.41 11.894-10.085 8.133-26.214 7.949-36.023-.415l-122.741-104.434c-5.285-3.88-8.618-9.548-8.618-15.862 0-11.7 11.437-21.185 25.548-21.185h147.783v.066c1.514 0 3.048.114 4.59.348 13.831 2.102 22.99 13.107 20.457 24.578z"/><path id="_461668064" class="fil7" d="M1093.84 1395.59"/><path id="_461671928" class="fil5" d="m1163.75 739.538 147.7 277.202 177.87-67.862 121.21-74.857-329.99-240.879z"/><path id="_461670704" class="fil5" d="m1086.57 889.978 191.36 142.762-30.65 17.07z"/><path id="_461670536" class="fil8" d="M1064.64 479.77c7.19-3.789 14.576-7.3 22.131-10.514 48.304 47.214 195.3 187.025 195.807 187.506l-16.05 16.87c-.524-.495-156.662-149.034-201.887-193.862z"/><path id="_461669768" class="fil8" d="M948.067 601.087a199.14 199.14 0 0 1 10.14-20.965c33.19 18.34 255.916 143.048 256.576 143.414l-16.415 17.054c-.657-.363-217.663-121.504-250.301-139.504z"/><path id="_461668208" class="fil9" d="M1604.38 864.258c-.474.433-.95.866-1.428 1.292a288.73 288.73 0 0 0 7.515 8.405l-40.776 19.47c-10.478 3.846-22.951 9.1-37.765 16.238-36.51 18.025-161.458 75.945-235.977 114.478l-50.323 24.03c-4.753-4.71-9.54-9.454-14.376-14.234 42.021-30.5 240.128-120.95 290.554-145.25 37.367-18.008 64.029-23.869 82.577-24.43z"/><path id="_461672792" class="fil10" d="M920.644 318.137c1.925.91 3.83 1.864 5.71 2.863.043-.05.084-.103.13-.154 6.237-7.064 21.446-3.826 33.968 7.231 12.228 10.798 17.37 25.057 11.8 32.3 17.33 22.372 30.21 50.282 35.724 78.003 6.99 35.144 2.338 70.414-19.51 95.157-21.849 24.744-56.272 33.725-92.011 31.138-28.216-2.044-57.53-11.384-81.887-25.834-34.552-26.297-31.891-29.163-44.687-40.626a137.884 137.884 0 0 1-3.554-5.318l-5.463-8.605 6.705-7.594 137.154-155.323 6.707-7.594 9.213 4.356z"/><path id="_461667944" class="fil0" d="M935.241 327.749c14.953 9.196 26.215 20.753 36.828 32.726 31.29 36.842 72.094 62.707 52.104 88.422-59.466 76.499-153.423 30.625-201.038 5.81-7.641-3.983 112.106-126.958 112.106-126.958z"/><path id="_461657240" class="fil11" d="M765.383 282.333c11.177-7.557 23.061-13.517 35.289-17.842l35.244 71.55-9.05-78.237a142.92 142.92 0 0 1 21.121-1.797c31.714-.32 62.74 10.088 87.397 31.862 1.397 1.233 3.084 2.823 5.048 4.753a140.378 140.378 0 0 1 4.932 5.103l-.008.007.006.006 8.419 9.016-8.112 9.186L767.244 518l-8.128 9.207-10.011-7.292-.153-.111-.008.011c-1.9-1.358-3.763-2.76-5.583-4.203-2.13-1.69-3.885-3.142-5.245-4.342-24.657-21.773-38.826-51.272-42.434-82.782a142.861 142.861 0 0 1-.83-21.18l77.345-.33-73.952-26.492c2.78-12.67 7.223-25.2 13.337-37.225l-14.035-12.392-10.154-8.967 8.967-10.155 35.867-40.618 8.967-10.156 10.155 8.967 14.034 12.394z"/><path id="_461666072" class="fil11" d="M765.383 282.333c11.177-7.557 23.061-13.517 35.289-17.842l35.244 71.55-9.05-78.237a142.92 142.92 0 0 1 21.121-1.797c31.714-.32 62.74 10.088 87.397 31.862 1.397 1.233 3.084 2.823 5.048 4.753a140.378 140.378 0 0 1 4.932 5.103l-.008.007.006.006 8.419 9.016-8.112 9.186L767.244 518l-8.128 9.207-10.011-7.292-.153-.111-.008.011c-1.9-1.358-3.763-2.76-5.583-4.203-2.13-1.69-3.885-3.142-5.245-4.342-24.657-21.773-38.826-51.272-42.434-82.782a142.861 142.861 0 0 1-.83-21.18l77.345-.33-73.952-26.492c2.78-12.67 7.223-25.2 13.337-37.225l-14.035-12.392-10.154-8.967 8.967-10.155 35.867-40.618 8.967-10.156 10.155 8.967 14.034 12.394z"/><path id="_461664704" class="fil12" d="m728.547 520.89 215.201-243.708 20.309 17.934-215.2 243.708z"/><path id="_461658008" class="fil13" d="m772.198 406.977-68.548-24.555a145.216 145.216 0 0 0-2.23 24.857l70.778-.302z"/><path id="_461662856" class="fil13" d="m803.205 269.633 32.712 66.407-8.295-71.713a145.135 145.135 0 0 0-24.417 5.306z"/><path id="_461664344" class="fil13" d="M711.506 343.193c5.835-12.091 13.402-23.594 22.724-34.15 9.324-10.558 19.802-19.491 31.076-26.777L751.35 269.94l-10.155-8.967-8.967 10.155-35.866 40.618-8.967 10.155 10.154 8.967 13.958 12.325z"/><path id="_461663264" class="fil1" d="M819.408 462.176c12.845-19.569 26.078-1.27 40.072 8.289 13.997 9.557 18.056 20.755 13.216 27.843-4.841 7.087-9.32 4.12-23.315-5.439-13.996-9.558-42.816-11.125-29.973-30.693z"/><g><path id="_461662064" class="fil7" d="M1299.49 1683.4h58.889c3.647 17.376 35.237 30.957 73.672 30.957 37.484 0 68.454-12.917 73.349-29.672 5.46 2.388 9.3 7.847 9.3 14.161v76.754c0 8.497-6.95 15.448-15.446 15.448h-281.21c-8.496 0-15.448-6.95-15.448-15.448v-19.189c0-36.782 67.29-73.011 96.894-73.011z"/><path id="_461661224" class="fil0" d="M1199.65 1783h320.803v8.996H1199.65z"/></g><path id="_461659832" class="fil14" d="M1628.7 892.967s62.563 146.338-60.703 227.032c-65.437 42.837-102.637 67.823-123.138 81.836l24.924 223.41 1.051 5.019 119.681 167.87.542 1.618c.423 1.184 3.2 3.248 5.12 4.937.877.771 1.576 1.465 1.79 1.96.007.013.011.026.016.039a33.954 33.954 0 0 0 4.182 7.156c28.29 37.283 133.494 24.825 144.02-6.98.237-.715.426-1.44.565-2.175-.874-11.126-3.472-24.72-7.819-42.342-9.815-39.626-91.04-193.465-91.04-207.662 0-90.331 76.17-172.725 34.973-354.58-13.61-60.081-32.018-83.833-54.164-107.138z"/><path id="_461661920" class="fil15" d="M0 0h2048v2048H0z"/></g><g id="_461677232"><path id="_461659568" class="fil0" d="M1538.55 1604.69h58.889c3.647 17.376 35.237 30.958 73.672 30.958 37.484 0 68.454-12.917 73.349-29.673 5.461 2.39 9.301 7.847 9.301 14.163v76.754c0 8.495-6.952 15.447-15.447 15.447h-281.21c-8.496 0-15.448-6.952-15.448-15.447v-19.19c0-36.783 67.291-73.012 96.894-73.012z"/><path id="_461658464" class="fil0" d="M1438.71 1704.29h320.803v8.996H1438.71z"/><path id="_461657792" class="fil1" d="m984.329 478.264 2.599.975 61.602 23.102-68.943 68.944-27.724-37.573z"/><path id="_461658728" class="fil2" d="m860.892 1500.34 15.75 37.997c2.804 2.535-.203-8.571 4.94-8.036 14.28 1.484 28.703 2.986 38.952 8.95 1.974 1.148 7.425 3.074 13.876 5.349 30.251 10.673 75.731 26.724 98.99 79.393 21.029 47.615 81.518 74.576 106.378 85.656 15.415 6.872 24.988 11.128 28.934 25.931l9.988 37.472H288.491l2.689-32.336c8.332-100.231 26.006-104.07 57.985-111.013 10.802-2.345 26.043-5.654 53.284-59.476 3.427-6.773 6.582-13.03 9.497-18.817 23.734-47.11 32.974-65.448 49.106-80.473 10.615-9.89 21.177-15.562 38.465-24.845 19.24-10.33 48.273-25.92 97.21-58.921h.117c4.947-3.33 18.454-7.052 31.532-9.654 12.541-2.495 26.835-4.768 31.696-4.768 8.967 0 18.444 2.143 27.1 5.45 8.982 3.43 17.694 8.433 24.154 13.649 3.06 2.472 6.098 5.104 9.072 7.684 4.81 4.17 9.411 8.159 13.816 10.916 4.334 2.713 12.44 8.725 23.194 16.698 25.296 18.758 45.021 71.268 57.259 61.405l46.225 11.79z"/><path id="_461655680" class="fil3" d="m1229.53 1015.95-410.079 326.76-28.115-19.86 410.074-326.761z"/><path id="_461657912" class="fil4" d="m780.334 1254.52 90.613 118.805 18.091 23.717-23.694 18.072L811.736 1456a108.284 108.284 0 0 1-3.255 2.404c-.53.372-1.646 1.109-3.314 2.19l-30.089 19.478c-49.656-97.825-16.578-19.526-115.002-96.54l-28.212 1.042c15.598-35.885 20.067-69.593 53.072-94.77l53.608-40.888 23.719-18.09 18.07 23.693z"/><path id="_461655824" class="fil5" d="m1610.46 873.955.063.066c3.52 3.795 6.968 7.344 10.319 10.797 25.669 26.435 46.839 48.237 62.024 115.285 41.193 181.858-34.976 264.252-34.976 354.585 0 14.192 81.232 168.036 91.039 207.66 4.354 17.617 6.953 31.21 7.821 42.34-6.685 35.334-128.741 48.831-148.78 1.957-.687-1.574-6.296-5.172-6.913-6.892l-.541-1.624-119.685-167.865-1.051-5.02-25.048-224.554-101.903 76.627c-3.844 4.17-10.466 12.385-13.154 25.327-3.573 17.207-.874 42.911 20.152 80.422 24.785 44.217 46.992 90.357 67.942 133.886 16.159 33.576 31.553 65.563 46.876 93.862l.466.934c3.15 6.404 6.653 12.371 10.158 18.343 12.888 21.954 25.817 43.98 25.817 75.267l-2.61 67.694c-41.574-5.523-44.217-41.744-87.855-39.257-30.715 1.75-40.969 28.095-57.625-4.97l-3.936-15.54c-52.574-95.414-168.59-157.494-255.218-317.698-15.86-27.166-22.842-63.035-20.868-97.438 1.991-34.721 13.086-69.056 33.375-93.033 24.413-28.86 51.773-59.92 80.784-91.568 20.113-21.938 40.333-43.396 60.14-63.734l-1.309-1.3-.346-.343 364.842-174.216z"/><path id="_461654600" class="fil6" d="M1521.41 454.601c73.04 0 132.969.001 155.78 117.52l.585 5.603c0 108.658-10.948 174.755-28.099 218.467-12.986 33.1-29.115 53.62-46.731 69.36a288.73 288.73 0 0 0 7.515 8.404l-281.916 134.617-82.925 39.599a17620.98 17620.98 0 0 0-67.494-66.526c-20.606-20.212-68.037-68.725-91.555-91.668l-36.342 195.761c-7.44 26.476-23.808 75.074-55.156 98.762-25.635 19.371-61.288 22.089-110.267-17.564-14.484-18.501-23.132-42.042-23.132-66.1 0-5.181.464-10.678 1.425-16.464l58.662-352.948-.02-.003c2.216-18.603 6.426-49.27 11.93-77.181 3.971-20.152 8.71-39.213 14.08-52.393 12.638-31.013 33.78-59.527 60.824-83.479 26.716-23.663 59.134-42.866 94.64-55.538 59.172-21.118 222.01-14.895 333.51-10.633 34.014 1.299 62.91 2.403 84.411 2.403h.274zm6.528 178.474-23.586 105.011c-.818 4.374-3.291 8.571-7.41 11.894-10.085 8.133-26.214 7.949-36.023-.415l-122.741-104.434c-5.285-3.88-8.618-9.548-8.618-15.862 0-11.7 11.437-21.185 25.548-21.185h147.783v.066c1.514 0 3.048.114 4.59.348 13.831 2.102 22.99 13.107 20.457 24.578z"/><path id="_461654096" class="fil7" d="M1093.84 1395.59"/><path id="_461653664" class="fil5" d="m1163.75 739.538 147.7 277.202 177.87-67.862 121.21-74.857-329.99-240.879z"/><path id="_461652200" class="fil5" d="m1086.57 889.978 191.36 142.762-30.65 17.07z"/><path id="_461652056" class="fil8" d="M1064.64 479.77c7.19-3.789 14.576-7.3 22.131-10.514 48.304 47.214 195.3 187.025 195.807 187.506l-16.05 16.87c-.524-.495-156.662-149.034-201.887-193.862z"/><path id="_461651528" class="fil8" d="M948.067 601.087a199.14 199.14 0 0 1 10.14-20.965c33.19 18.34 255.916 143.048 256.576 143.414l-16.415 17.054c-.657-.363-217.663-121.504-250.301-139.504z"/><path id="_461651816" class="fil9" d="M1604.38 864.258c-.474.433-.95.866-1.428 1.292a288.73 288.73 0 0 0 7.515 8.405l-40.776 19.47c-10.478 3.846-22.951 9.1-37.765 16.238-36.51 18.025-161.458 75.945-235.977 114.478l-50.323 24.03c-4.753-4.71-9.54-9.454-14.376-14.234 42.021-30.5 240.128-120.95 290.554-145.25 37.367-18.008 64.029-23.869 82.577-24.43z"/><path id="_461650424" class="fil10" d="M920.644 318.137c1.925.91 3.83 1.864 5.71 2.863.043-.05.084-.103.13-.154 6.237-7.064 21.446-3.826 33.968 7.231 12.228 10.798 17.37 25.057 11.8 32.3 17.33 22.372 30.21 50.282 35.724 78.003 6.99 35.144 2.338 70.414-19.51 95.157-21.849 24.744-56.272 33.725-92.011 31.138-28.216-2.044-57.53-11.384-81.887-25.834-34.552-26.297-31.891-29.163-44.687-40.626a137.884 137.884 0 0 1-3.554-5.318l-5.463-8.605 6.705-7.594 137.154-155.323 6.707-7.594 9.213 4.356z"/><path id="_461649032" class="fil0" d="M935.241 327.749c14.953 9.196 26.215 20.753 36.828 32.726 31.29 36.842 72.094 62.707 52.104 88.422-59.466 76.499-153.423 30.625-201.038 5.81-7.641-3.983 112.106-126.958 112.106-126.958z"/><path id="_461648672" class="fil11" d="M765.383 282.333c11.177-7.557 23.061-13.517 35.289-17.842l35.244 71.55-9.05-78.237a142.92 142.92 0 0 1 21.121-1.797c31.714-.32 62.74 10.088 87.397 31.862 1.397 1.233 3.084 2.823 5.048 4.753a140.378 140.378 0 0 1 4.932 5.103l-.008.007.006.006 8.419 9.016-8.112 9.186L767.244 518l-8.128 9.207-10.011-7.292-.153-.111-.008.011c-1.9-1.358-3.763-2.76-5.583-4.203-2.13-1.69-3.885-3.142-5.245-4.342-24.657-21.773-38.826-51.272-42.434-82.782a142.861 142.861 0 0 1-.83-21.18l77.345-.33-73.952-26.492c2.78-12.67 7.223-25.2 13.337-37.225l-14.035-12.392-10.154-8.967 8.967-10.155 35.867-40.618 8.967-10.156 10.155 8.967 14.034 12.394z"/><path id="_461648864" class="fil11" d="M765.383 282.333c11.177-7.557 23.061-13.517 35.289-17.842l35.244 71.55-9.05-78.237a142.92 142.92 0 0 1 21.121-1.797c31.714-.32 62.74 10.088 87.397 31.862 1.397 1.233 3.084 2.823 5.048 4.753a140.378 140.378 0 0 1 4.932 5.103l-.008.007.006.006 8.419 9.016-8.112 9.186L767.244 518l-8.128 9.207-10.011-7.292-.153-.111-.008.011c-1.9-1.358-3.763-2.76-5.583-4.203-2.13-1.69-3.885-3.142-5.245-4.342-24.657-21.773-38.826-51.272-42.434-82.782a142.861 142.861 0 0 1-.83-21.18l77.345-.33-73.952-26.492c2.78-12.67 7.223-25.2 13.337-37.225l-14.035-12.392-10.154-8.967 8.967-10.155 35.867-40.618 8.967-10.156 10.155 8.967 14.034 12.394z"/><path id="_461651264" class="fil12" d="m728.547 520.89 215.201-243.708 20.309 17.934-215.2 243.708z"/><path id="_461649584" class="fil13" d="m772.198 406.977-68.548-24.555a145.216 145.216 0 0 0-2.23 24.857l70.778-.302z"/><path id="_461648432" class="fil13" d="m803.205 269.633 32.712 66.407-8.295-71.713a145.135 145.135 0 0 0-24.417 5.306z"/><path id="_461648504" class="fil13" d="M711.506 343.193c5.835-12.091 13.402-23.594 22.724-34.15 9.324-10.558 19.802-19.491 31.076-26.777L751.35 269.94l-10.155-8.967-8.967 10.155-35.866 40.618-8.967 10.155 10.154 8.967 13.958 12.325z"/><path id="_461645648" class="fil1" d="M819.408 462.176c12.845-19.569 26.078-1.27 40.072 8.289 13.997 9.557 18.056 20.755 13.216 27.843-4.841 7.087-9.32 4.12-23.315-5.439-13.996-9.558-42.816-11.125-29.973-30.693z"/><g><path id="_461645168" class="fil7" d="M1299.49 1683.4h58.889c3.647 17.376 35.237 30.957 73.672 30.957 37.484 0 68.454-12.917 73.349-29.672 5.46 2.388 9.3 7.847 9.3 14.161v76.754c0 8.497-6.95 15.448-15.446 15.448h-281.21c-8.496 0-15.448-6.95-15.448-15.448v-19.189c0-36.782 67.29-73.011 96.894-73.011z"/><path id="_461645288" class="fil0" d="M1199.65 1783h320.803v8.996H1199.65z"/></g><path id="_461675408" class="fil14" d="M1628.7 892.967s62.563 146.338-60.703 227.032c-65.437 42.837-102.637 67.823-123.138 81.836l24.924 223.41 1.051 5.019 119.681 167.87.542 1.618c.423 1.184 3.2 3.248 5.12 4.937.877.771 1.576 1.465 1.79 1.96.007.013.011.026.016.039a33.954 33.954 0 0 0 4.182 7.156c28.29 37.283 133.494 24.825 144.02-6.98.237-.715.426-1.44.565-2.175-.874-11.126-3.472-24.72-7.819-42.342-9.815-39.626-91.04-193.465-91.04-207.662 0-90.331 76.17-172.725 34.973-354.58-13.61-60.081-32.018-83.833-54.164-107.138z"/><path id="_461673176" class="fil15" d="M0 0h2048v2048H0z"/></g></g></svg>